<svg width="40" height="40" viewBox="0 0 40 40" fill="none" xmlns="http://www.w3.org/2000/svg">
<rect x="-0.5" y="0.5" width="39" height="39" rx="19.5" transform="matrix(-1 0 0 1 39 0)" stroke="#B3B3B3"/>
<g clip-path="url(#clip0_3150_159)">
<g clip-path="url(#clip1_3150_159)">
<g clip-path="url(#clip2_3150_159)">
<path d="M24.3359 17.7969L21.8842 19.2464C20.4549 20.0915 19.8836 20.0915 18.4542 19.2464L16.0026 17.7969" stroke="white" stroke-width="1.5" stroke-linecap="round" stroke-linejoin="round"/>
<path d="M28.4869 21.938C28.4324 24.4927 28.4051 25.7699 27.4625 26.7162C26.5199 27.6623 25.2081 27.6953 22.5843 27.7612C20.9672 27.8018 19.3661 27.8018 17.749 27.7612C15.1252 27.6953 13.8134 27.6623 12.8707 26.7162C11.9282 25.7699 11.9009 24.4927 11.8465 21.938C11.8289 21.1166 11.8289 20.3001 11.8465 19.4787C11.9009 16.924 11.9282 15.6467 12.8707 14.7005C13.8134 13.7544 15.1252 13.7214 17.749 13.6555C19.3661 13.6148 20.9672 13.6148 22.5843 13.6555C25.2081 13.7214 26.5199 13.7543 27.4625 14.7005C28.4051 15.6467 28.4324 16.924 28.4869 19.4787C28.5044 20.3001 28.5044 21.1166 28.4869 21.938Z" stroke="white" stroke-width="1.5" stroke-linejoin="round"/>
</g>
</g>
</g>
<defs>
<clipPath id="clip0_3150_159">
<rect width="19" height="16" fill="white" transform="matrix(-1 0 0 1 29.5 12.625)"/>
</clipPath>
<clipPath id="clip1_3150_159">
<rect width="19" height="16" fill="white" transform="matrix(-1 0 0 1 29.5 12.625)"/>
</clipPath>
<clipPath id="clip2_3150_159">
<rect width="19" height="16" fill="white" transform="matrix(-1 0 0 1 29.5 12.625)"/>
</clipPath>
</defs>
</svg>
