<svg width="40" height="40" viewBox="0 0 40 40" fill="none" xmlns="http://www.w3.org/2000/svg">
<rect x="-0.5" y="0.5" width="39" height="39" rx="19.5" transform="matrix(-1 0 0 1 39 0)" stroke="#B3B3B3"/>
<g clip-path="url(#clip0_3150_153)">
<g clip-path="url(#clip1_3150_153)">
<g clip-path="url(#clip2_3150_153)">
<path d="M25.479 20.5814C26.111 19.4793 26.4162 18.5794 26.6002 17.6673C26.8723 16.3182 26.2495 15.0003 25.2178 14.1594C24.7818 13.804 24.2819 13.9255 24.0241 14.3881L23.4419 15.4324C22.9805 16.2602 22.7498 16.6741 22.7956 17.1129C22.8413 17.5517 23.1525 17.909 23.7747 18.6238L25.479 20.5814ZM25.479 20.5814C24.1997 22.812 22.1922 24.8206 19.959 26.1014M19.959 26.1014C18.8569 26.7334 17.957 27.0386 17.0448 27.2226C15.6958 27.4947 14.3779 26.8719 13.537 25.8402C13.1816 25.4042 13.303 24.9043 13.7656 24.6464L14.81 24.0643C15.6378 23.6029 16.0516 23.3722 16.4904 23.418C16.9292 23.4637 17.2866 23.7748 18.0014 24.3971L19.959 26.1014Z" stroke="white" stroke-width="1.5" stroke-linejoin="round"/>
<path d="M18.6641 17.1744C17.7152 17.5773 16.9548 18.3376 16.5519 19.2865M18.2281 13.9531C15.8699 14.6336 14.0113 16.4921 13.3307 18.8502" stroke="white" stroke-width="1.5" stroke-linecap="round"/>
</g>
</g>
</g>
<defs>
<clipPath id="clip0_3150_153">
<rect width="16" height="16" fill="white" transform="matrix(-1 0 0 1 28 12.625)"/>
</clipPath>
<clipPath id="clip1_3150_153">
<rect width="16" height="16" fill="white" transform="matrix(-1 0 0 1 28 12.625)"/>
</clipPath>
<clipPath id="clip2_3150_153">
<rect width="16" height="16" fill="white" transform="matrix(-1 0 0 1 28 12.625)"/>
</clipPath>
</defs>
</svg>
