<svg width="60" height="60" viewBox="0 0 60 60" fill="none" xmlns="http://www.w3.org/2000/svg">
<g filter="url(#filter0_d_3068_9395)">
<rect x="14" y="12" width="32" height="32" rx="16" fill="white" fill-opacity="0.01" shape-rendering="crispEdges"/>
<rect x="14.5" y="12.5" width="31" height="31" rx="15.5" stroke="white" shape-rendering="crispEdges"/>
<path d="M30.3828 25.6055C32.1055 25.6055 33.5273 27.0273 33.5273 28.75C33.5273 30.5 32.1055 31.8945 30.3828 31.8945C28.6328 31.8945 27.2383 30.5 27.2383 28.75C27.2383 27.0273 28.6328 25.6055 30.3828 25.6055ZM30.3828 30.8008C31.5039 30.8008 32.4062 29.8984 32.4062 28.75C32.4062 27.6289 31.5039 26.7266 30.3828 26.7266C29.2344 26.7266 28.332 27.6289 28.332 28.75C28.332 29.8984 29.2617 30.8008 30.3828 30.8008ZM34.375 25.4961C34.375 25.9062 34.0469 26.2344 33.6367 26.2344C33.2266 26.2344 32.8984 25.9062 32.8984 25.4961C32.8984 25.0859 33.2266 24.7578 33.6367 24.7578C34.0469 24.7578 34.375 25.0859 34.375 25.4961ZM36.4531 26.2344C36.5078 27.2461 36.5078 30.2812 36.4531 31.293C36.3984 32.2773 36.1797 33.125 35.4688 33.8633C34.7578 34.5742 33.8828 34.793 32.8984 34.8477C31.8867 34.9023 28.8516 34.9023 27.8398 34.8477C26.8555 34.793 26.0078 34.5742 25.2695 33.8633C24.5586 33.125 24.3398 32.2773 24.2852 31.293C24.2305 30.2812 24.2305 27.2461 24.2852 26.2344C24.3398 25.25 24.5586 24.375 25.2695 23.6641C26.0078 22.9531 26.8555 22.7344 27.8398 22.6797C28.8516 22.625 31.8867 22.625 32.8984 22.6797C33.8828 22.7344 34.7578 22.9531 35.4688 23.6641C36.1797 24.375 36.3984 25.25 36.4531 26.2344ZM35.1406 32.3594C35.4688 31.5664 35.3867 29.6523 35.3867 28.75C35.3867 27.875 35.4688 25.9609 35.1406 25.1406C34.9219 24.6211 34.5117 24.1836 33.9922 23.9922C33.1719 23.6641 31.2578 23.7461 30.3828 23.7461C29.4805 23.7461 27.5664 23.6641 26.7734 23.9922C26.2266 24.2109 25.8164 24.6211 25.5977 25.1406C25.2695 25.9609 25.3516 27.875 25.3516 28.75C25.3516 29.6523 25.2695 31.5664 25.5977 32.3594C25.8164 32.9062 26.2266 33.3164 26.7734 33.5352C27.5664 33.8633 29.4805 33.7812 30.3828 33.7812C31.2578 33.7812 33.1719 33.8633 33.9922 33.5352C34.5117 33.3164 34.9492 32.9062 35.1406 32.3594Z" fill="white"/>
</g>
<defs>
<filter id="filter0_d_3068_9395" x="0" y="0" width="60" height="60" filterUnits="userSpaceOnUse" color-interpolation-filters="sRGB">
<feFlood flood-opacity="0" result="BackgroundImageFix"/>
<feColorMatrix in="SourceAlpha" type="matrix" values="0 0 0 0 0 0 0 0 0 0 0 0 0 0 0 0 0 0 127 0" result="hardAlpha"/>
<feOffset dy="2"/>
<feGaussianBlur stdDeviation="7"/>
<feComposite in2="hardAlpha" operator="out"/>
<feColorMatrix type="matrix" values="0 0 0 0 0.0156863 0 0 0 0 0.0235294 0 0 0 0 0.258824 0 0 0 0.1 0"/>
<feBlend mode="normal" in2="BackgroundImageFix" result="effect1_dropShadow_3068_9395"/>
<feBlend mode="normal" in="SourceGraphic" in2="effect1_dropShadow_3068_9395" result="shape"/>
</filter>
</defs>
</svg>
